<svg id="svg" version="1.1" xmlns="http://www.w3.org/2000/svg" xmlns:xlink="http://www.w3.org/1999/xlink" width="400" height="500.1221001221001" viewBox="0, 0, 400,500.1221001221001"><g id="svgg"><path id="path0" d="M357.600 41.085 C 356.449 41.511,352.157 46.224,350.028 49.400 C 348.847 51.160,347.150 53.142,346.256 53.805 C 345.109 54.656,344.547 55.419,344.347 56.398 C 344.014 58.023,341.267 60.800,339.992 60.800 C 339.530 60.800,338.173 61.726,336.976 62.858 L 334.800 64.916 334.800 67.474 C 334.800 69.242,334.553 70.516,334.000 71.600 C 333.038 73.486,332.976 74.739,333.830 75.067 C 334.251 75.228,334.385 75.606,334.234 76.205 C 334.111 76.698,334.367 78.142,334.805 79.414 C 335.765 82.204,335.788 83.200,334.970 86.394 C 334.490 88.269,334.441 89.143,334.765 90.072 C 334.999 90.743,335.091 91.453,334.969 91.650 C 334.847 91.847,334.581 94.204,334.377 96.887 C 333.947 102.554,333.575 103.926,331.783 106.452 C 329.547 109.606,329.200 110.563,329.200 113.580 C 329.200 116.156,329.129 116.400,328.380 116.400 C 326.995 116.400,325.242 117.550,324.247 119.111 C 322.869 121.275,320.521 123.554,319.374 123.842 C 317.460 124.323,317.403 125.404,319.191 127.344 C 320.520 128.785,320.708 129.178,320.254 129.555 C 319.950 129.807,319.407 131.062,319.048 132.344 C 318.555 134.099,317.937 135.138,316.543 136.552 L 314.692 138.430 314.906 140.791 C 315.092 142.850,314.997 143.320,314.160 144.454 C 313.458 145.406,313.200 146.276,313.200 147.693 C 313.200 151.538,305.718 165.364,302.036 168.323 C 299.688 170.210,298.153 173.154,297.199 177.600 C 296.750 179.690,296.117 182.510,295.792 183.866 C 295.466 185.222,295.200 186.955,295.200 187.718 C 295.200 188.815,294.926 189.314,293.888 190.106 C 292.980 190.798,292.365 191.769,291.895 193.253 C 290.346 198.139,287.931 202.139,286.299 202.525 C 284.220 203.017,283.028 205.573,283.352 208.840 C 283.615 211.477,281.809 217.713,280.476 218.776 C 279.365 219.662,278.932 220.664,278.404 223.576 C 277.721 227.345,276.952 228.983,275.554 229.645 C 274.888 229.960,273.405 231.381,272.258 232.803 C 270.711 234.720,269.718 235.555,268.414 236.037 C 267.446 236.394,266.193 237.270,265.627 237.982 C 263.453 240.722,260.402 243.351,255.200 246.964 C 246.470 253.029,244.465 255.359,242.643 261.557 C 242.295 262.743,241.535 264.523,240.955 265.513 C 240.021 267.106,239.923 267.621,240.093 270.007 C 240.320 273.173,240.049 273.802,238.112 274.611 C 237.317 274.943,235.842 275.979,234.834 276.914 C 232.815 278.784,231.009 279.957,224.941 283.338 C 219.940 286.124,217.025 288.283,215.769 290.132 C 215.241 290.909,213.864 292.052,212.710 292.672 C 211.520 293.312,210.262 294.372,209.806 295.120 C 207.357 299.132,206.486 300.246,205.400 300.750 C 203.581 301.594,202.759 302.433,201.924 304.299 C 201.459 305.336,200.690 306.243,199.948 306.627 C 199.146 307.042,198.465 307.892,197.947 309.128 C 197.455 310.303,196.568 311.443,195.565 312.189 C 192.155 314.727,194.657 316.205,198.380 313.852 L 200.560 312.474 201.880 313.915 C 203.615 315.809,203.548 316.418,201.415 318.167 C 198.416 320.623,196.756 322.970,195.944 325.898 C 195.089 328.984,194.507 329.673,191.331 331.367 C 189.802 332.182,188.633 333.176,187.883 334.299 C 187.259 335.233,186.318 336.106,185.791 336.238 C 184.224 336.631,183.918 337.307,184.586 338.904 L 185.177 340.318 182.888 342.822 C 181.630 344.199,180.330 345.567,180.000 345.861 C 175.223 350.127,174.422 350.699,172.587 351.162 C 170.460 351.697,164.603 354.564,159.241 357.694 C 149.860 363.171,146.907 365.964,144.001 372.111 C 142.938 374.360,141.496 376.740,140.797 377.400 C 140.097 378.060,139.073 379.500,138.521 380.600 C 137.968 381.700,136.993 383.150,136.355 383.822 C 135.717 384.494,134.589 386.500,133.850 388.279 C 133.111 390.058,132.052 392.118,131.498 392.857 C 130.943 393.596,130.033 395.111,129.476 396.225 C 128.568 398.040,125.668 401.194,124.899 401.204 C 124.734 401.206,123.401 402.358,121.936 403.764 C 120.238 405.393,118.789 406.427,117.941 406.613 C 117.210 406.773,116.216 407.164,115.732 407.481 C 115.248 407.798,114.081 408.450,113.138 408.929 C 111.707 409.656,111.191 410.272,110.012 412.657 C 107.769 417.195,107.398 417.455,102.400 417.983 C 99.916 418.245,98.951 418.575,96.790 419.900 C 93.507 421.912,91.719 422.231,88.241 421.424 C 82.587 420.113,80.016 420.694,78.400 423.649 C 77.850 424.654,76.574 426.300,75.565 427.305 L 73.730 429.133 69.165 428.826 C 64.137 428.489,53.513 428.914,51.000 429.553 C 50.120 429.777,48.140 430.334,46.600 430.792 C 45.060 431.249,42.360 431.733,40.600 431.866 C 38.795 432.004,36.290 432.522,34.852 433.055 C 32.896 433.781,31.497 434.000,28.825 434.000 C 24.259 434.000,21.412 434.829,20.603 436.395 C 19.381 438.757,19.994 440.406,22.505 441.517 C 23.437 441.930,25.069 443.020,26.131 443.940 C 28.442 445.940,30.011 446.800,31.354 446.800 C 32.886 446.800,34.387 447.502,35.575 448.774 C 36.378 449.632,37.300 450.058,39.145 450.421 C 40.635 450.714,42.264 451.368,43.208 452.052 C 44.074 452.679,45.604 453.377,46.607 453.601 C 47.610 453.826,49.416 454.566,50.621 455.246 C 52.490 456.301,53.417 456.531,56.939 456.813 C 59.209 456.995,62.221 457.446,63.633 457.815 C 65.570 458.322,67.044 458.425,69.638 458.234 C 72.086 458.054,73.815 458.155,75.638 458.584 C 81.138 459.881,83.157 459.451,87.600 456.042 C 91.521 453.033,90.856 453.313,96.262 452.394 C 106.975 450.573,118.753 446.979,125.977 443.327 C 133.190 439.680,136.750 438.146,138.802 437.801 C 139.791 437.635,141.466 437.005,142.524 436.401 C 144.066 435.522,144.795 435.343,146.188 435.500 C 148.130 435.719,148.661 435.119,152.119 428.800 C 152.902 427.370,154.365 425.398,155.371 424.417 C 156.377 423.436,157.200 422.298,157.200 421.887 C 157.200 420.913,161.375 416.543,162.599 416.236 C 164.261 415.819,164.371 412.421,162.769 410.972 C 161.974 410.253,163.000 407.706,165.222 404.881 C 165.650 404.337,166.000 403.487,166.000 402.993 C 166.000 402.455,166.297 402.016,166.738 401.900 C 168.743 401.376,169.698 396.808,168.459 393.674 C 166.594 388.958,166.358 386.783,167.496 384.800 C 170.469 379.621,171.542 378.400,173.119 378.400 C 174.219 378.400,175.307 377.932,177.279 376.609 C 180.245 374.619,182.466 374.057,184.726 374.725 C 185.537 374.964,186.669 375.256,187.243 375.373 C 187.816 375.491,189.571 376.739,191.143 378.149 C 196.926 383.335,200.270 381.828,202.615 372.977 C 203.986 367.806,204.615 366.808,208.211 364.099 C 213.029 360.469,216.504 358.571,224.600 355.145 C 228.129 353.652,228.930 353.115,231.400 350.589 C 236.399 345.477,239.862 344.094,245.992 344.761 C 250.173 345.215,253.821 344.552,255.600 343.012 C 255.930 342.727,256.990 342.096,257.956 341.610 C 258.922 341.124,260.494 339.956,261.448 339.015 C 262.403 338.074,263.716 337.083,264.366 336.814 C 265.524 336.334,266.828 334.222,267.419 331.868 C 267.616 331.083,268.441 330.463,270.989 329.182 C 275.899 326.716,278.621 324.428,279.790 321.785 C 280.321 320.583,280.940 319.600,281.165 319.600 C 281.887 319.600,284.261 316.941,285.549 314.689 C 287.169 311.857,287.202 310.229,285.656 309.429 C 283.510 308.319,283.097 305.200,285.096 305.200 C 285.425 305.200,286.978 304.231,288.547 303.048 C 291.358 300.928,293.150 299.136,298.523 293.076 C 303.269 287.725,305.188 286.709,306.269 288.975 C 307.575 291.714,310.848 290.858,316.573 286.278 C 318.568 284.682,320.830 283.089,321.600 282.737 C 326.078 280.693,325.477 268.744,320.511 261.088 C 318.396 257.826,317.010 257.432,313.528 259.101 C 312.137 259.766,310.010 260.442,308.800 260.602 C 305.922 260.984,304.976 261.505,301.531 264.608 C 299.948 266.034,298.506 267.200,298.326 267.200 C 297.656 267.200,298.037 266.523,299.185 265.675 C 299.887 265.155,300.535 264.184,300.776 263.289 C 301.014 262.406,301.864 261.120,302.827 260.190 C 304.684 258.394,306.980 254.165,307.600 251.399 C 308.866 245.749,317.474 234.400,320.493 234.400 C 321.436 234.400,322.673 234.049,323.472 233.555 C 325.720 232.166,328.068 235.685,326.643 238.307 C 324.207 242.791,324.022 244.000,325.773 244.000 C 327.162 244.000,327.719 245.009,327.047 246.309 C 326.691 246.997,326.400 248.125,326.400 248.816 C 326.400 249.800,325.966 250.491,324.400 252.000 C 322.080 254.236,322.020 254.475,323.514 255.539 C 326.790 257.871,333.800 257.902,334.263 255.587 C 334.392 254.940,334.926 253.950,335.449 253.385 C 336.537 252.211,336.650 251.157,335.824 249.886 C 335.315 249.101,335.341 248.729,336.056 246.621 L 336.863 244.242 335.957 242.309 L 335.052 240.376 335.947 238.688 C 336.440 237.760,337.193 236.370,337.621 235.600 C 338.049 234.830,338.591 233.418,338.825 232.462 C 339.181 231.011,340.079 229.885,344.252 225.662 C 351.279 218.549,352.133 217.327,353.245 212.791 C 353.887 210.177,354.435 208.816,355.071 208.264 C 357.065 206.530,357.188 203.528,355.408 200.015 C 354.898 199.010,354.266 197.380,354.004 196.393 C 353.742 195.407,353.183 194.039,352.763 193.353 C 351.782 191.749,351.787 189.579,352.775 188.322 C 353.999 186.766,354.115 185.572,353.214 183.815 C 352.195 181.831,352.199 181.500,353.280 178.893 C 354.057 177.019,354.108 176.528,353.724 174.686 C 353.316 172.730,353.779 168.528,354.538 167.301 C 354.662 167.099,354.601 165.348,354.401 163.409 C 353.984 159.368,354.327 158.101,356.328 156.280 C 361.935 151.179,362.728 149.420,361.459 144.895 C 360.475 141.391,360.577 140.524,362.076 139.612 C 364.055 138.409,364.462 137.335,363.553 135.716 C 362.500 133.841,362.593 133.349,364.300 131.781 L 365.800 130.402 365.706 126.364 C 365.604 121.980,365.764 121.440,367.858 119.099 C 369.466 117.300,369.613 115.577,368.365 113.132 C 367.764 111.952,367.602 111.115,367.787 110.130 C 368.080 108.566,367.730 107.090,367.113 107.296 C 366.700 107.433,366.342 109.309,366.379 111.140 C 366.389 111.656,366.758 112.894,367.199 113.890 C 368.301 116.381,368.231 116.810,366.395 118.832 C 364.397 121.033,364.230 121.666,364.565 125.791 L 364.835 129.111 363.217 130.980 C 361.443 133.030,361.234 134.132,362.250 136.096 C 362.879 137.312,362.869 137.375,361.950 138.056 C 359.252 140.053,359.376 139.460,360.236 146.278 C 360.614 149.276,360.178 150.974,358.685 152.327 C 357.978 152.968,356.568 154.238,355.551 155.150 C 353.156 157.298,352.649 159.035,353.156 163.363 C 353.359 165.102,353.380 166.902,353.201 167.363 C 352.203 169.935,351.905 172.717,352.413 174.700 C 352.887 176.548,352.859 176.842,352.064 178.367 C 350.994 180.420,350.965 182.371,351.975 184.350 L 352.749 185.868 351.787 187.434 C 350.499 189.530,350.503 191.880,351.800 194.315 C 352.350 195.348,352.800 196.442,352.800 196.746 C 352.800 197.051,353.447 198.733,354.238 200.484 C 355.857 204.070,355.861 205.822,354.253 207.087 C 353.364 207.786,351.600 212.582,351.600 214.300 C 351.600 215.694,348.396 219.888,344.407 223.715 C 339.620 228.307,337.789 230.654,337.422 232.663 C 337.268 233.508,336.435 235.293,335.571 236.628 C 333.875 239.250,333.562 241.188,334.613 242.576 C 335.385 243.598,335.357 244.973,334.516 247.319 C 333.964 248.859,333.925 249.373,334.317 249.919 C 335.273 251.253,335.290 251.652,334.430 252.568 C 333.951 253.078,333.418 254.014,333.246 254.648 C 332.863 256.056,328.312 256.299,325.447 255.065 L 323.894 254.396 325.747 252.415 C 327.201 250.861,327.600 250.141,327.600 249.071 C 327.600 248.314,327.955 247.256,328.400 246.691 C 329.554 245.223,328.964 243.220,327.369 243.194 C 325.803 243.168,325.994 240.704,327.595 240.286 C 328.615 240.019,329.013 237.397,328.268 235.838 C 327.943 235.157,327.483 234.102,327.245 233.494 C 326.571 231.773,325.105 231.298,323.289 232.211 C 322.432 232.643,321.178 232.913,320.333 232.849 C 317.324 232.620,306.401 246.786,306.400 250.919 C 306.399 252.496,303.998 256.925,301.994 259.043 C 300.918 260.182,299.915 261.627,299.766 262.256 C 299.456 263.563,298.110 265.200,297.344 265.200 C 296.207 265.200,295.828 266.893,296.791 267.673 C 298.215 268.827,298.996 268.562,302.015 265.900 C 305.468 262.855,306.863 262.077,309.426 261.765 C 310.512 261.633,312.498 260.979,313.839 260.312 C 317.283 258.599,317.995 258.993,320.504 264.000 C 324.369 271.715,324.437 279.878,320.650 281.702 C 319.962 282.033,317.781 283.613,315.802 285.213 C 310.432 289.556,308.206 290.249,307.172 287.900 C 305.762 284.696,302.410 286.564,295.600 294.350 C 291.125 299.467,287.043 302.986,284.213 304.169 C 281.890 305.139,282.179 309.224,284.651 310.351 C 286.455 311.172,284.851 314.647,281.110 318.026 C 279.836 319.177,278.847 320.505,278.437 321.614 C 277.682 323.658,274.991 325.759,269.930 328.255 L 266.860 329.770 265.791 332.495 C 264.956 334.623,264.445 335.361,263.461 335.862 C 262.767 336.215,261.266 337.380,260.124 338.452 C 258.982 339.523,257.781 340.400,257.455 340.400 C 257.128 340.400,256.353 340.816,255.731 341.325 C 253.362 343.263,251.263 343.697,245.693 343.400 C 239.135 343.050,233.562 345.319,230.653 349.522 C 229.315 351.454,227.531 352.577,222.587 354.598 C 216.493 357.089,211.564 359.850,206.995 363.332 C 203.704 365.841,202.514 367.884,201.167 373.332 C 199.376 380.584,196.698 381.570,191.600 376.856 C 189.274 374.706,188.665 374.393,185.279 373.607 C 182.158 372.883,179.876 373.365,176.629 375.434 C 174.591 376.733,173.453 377.200,172.324 377.200 C 170.889 377.200,170.698 377.349,169.359 379.500 C 168.572 380.765,167.373 382.610,166.694 383.600 C 165.979 384.644,165.465 385.904,165.470 386.600 C 165.486 388.700,166.344 392.432,167.235 394.272 C 168.560 397.010,167.622 400.400,165.538 400.400 C 164.834 400.400,164.626 400.959,164.772 402.458 C 164.807 402.821,164.137 404.199,163.282 405.522 C 160.772 409.405,160.528 410.235,161.506 411.558 C 162.819 413.335,162.830 415.010,161.530 415.422 C 160.150 415.860,156.879 419.149,156.410 420.570 C 156.175 421.283,155.131 422.753,154.091 423.838 C 153.051 424.923,151.390 427.326,150.400 429.178 C 147.766 434.105,147.417 434.477,145.714 434.158 C 144.598 433.948,143.792 434.148,141.852 435.113 C 140.503 435.784,138.088 436.721,136.484 437.195 C 134.880 437.669,131.010 439.363,127.884 440.959 C 117.928 446.044,104.526 450.175,94.037 451.393 C 91.379 451.702,90.631 452.082,86.623 455.156 C 82.905 458.008,81.748 458.319,77.621 457.572 C 75.959 457.272,72.440 457.015,69.800 457.002 C 66.837 456.987,64.545 456.781,63.812 456.465 C 63.159 456.183,60.522 455.807,57.951 455.628 C 53.822 455.341,53.030 455.163,51.139 454.096 C 49.963 453.432,47.974 452.596,46.720 452.239 C 45.467 451.882,44.329 451.409,44.193 451.189 C 43.748 450.469,41.037 449.316,39.249 449.087 C 37.956 448.921,37.111 448.485,36.023 447.422 C 34.853 446.280,34.073 445.905,32.248 445.608 C 29.821 445.213,27.440 443.996,26.817 442.832 C 26.612 442.449,25.342 441.548,23.995 440.830 C 21.254 439.369,20.991 439.002,21.577 437.462 C 22.152 435.949,23.579 435.519,28.400 435.403 C 31.617 435.326,33.109 435.098,34.774 434.428 C 36.037 433.920,38.551 433.403,40.774 433.194 C 42.878 432.996,46.026 432.381,47.769 431.827 C 52.601 430.291,56.500 429.914,66.027 430.064 L 74.653 430.200 76.665 428.102 C 77.772 426.948,79.002 425.282,79.400 424.399 C 80.468 422.033,82.015 421.670,87.177 422.576 C 92.134 423.447,93.795 423.208,97.296 421.120 C 99.489 419.813,100.554 419.450,102.995 419.176 C 108.028 418.611,108.830 418.033,111.283 413.195 C 112.614 410.573,116.889 407.601,119.332 407.600 C 119.734 407.600,121.084 406.560,122.332 405.288 C 123.579 404.017,125.359 402.466,126.287 401.843 C 128.191 400.564,129.463 399.030,130.800 396.400 C 131.303 395.410,132.157 394.020,132.697 393.311 C 133.237 392.602,134.204 390.730,134.847 389.151 C 135.489 387.572,136.654 385.573,137.435 384.708 C 138.217 383.843,139.195 382.346,139.609 381.380 C 140.023 380.414,141.065 378.854,141.924 377.912 C 142.784 376.970,144.204 374.670,145.080 372.800 C 148.706 365.058,160.138 356.893,174.432 351.834 C 179.158 350.162,187.003 340.866,185.839 338.317 C 185.604 337.801,185.757 337.571,186.464 337.380 C 186.979 337.241,188.074 336.247,188.899 335.173 C 189.904 333.863,191.143 332.851,192.660 332.103 C 195.403 330.750,196.244 329.694,197.051 326.583 C 197.712 324.036,198.931 322.153,201.176 320.209 C 205.039 316.865,204.914 317.026,204.626 315.778 C 204.122 313.598,201.342 310.967,200.076 311.472 C 197.114 312.654,197.318 312.629,198.123 311.711 C 198.521 311.257,198.984 310.372,199.152 309.743 C 199.331 309.074,200.093 308.168,200.990 307.559 C 202.017 306.861,202.734 305.946,203.163 304.787 C 203.682 303.382,204.155 302.880,205.679 302.120 C 207.697 301.114,208.507 300.171,210.143 296.925 C 211.024 295.176,211.578 294.642,213.672 293.525 C 215.219 292.700,216.401 291.747,216.804 291.000 C 217.683 289.373,221.341 286.758,227.439 283.400 C 230.276 281.838,233.523 279.684,234.786 278.527 C 236.030 277.387,237.809 276.150,238.740 275.778 C 241.065 274.847,241.645 273.602,241.329 270.221 C 241.110 267.872,241.185 267.417,241.968 266.357 C 242.456 265.697,243.133 264.221,243.472 263.078 C 245.507 256.208,247.019 254.386,256.000 247.984 C 262.265 243.518,265.086 241.046,266.478 238.800 C 266.851 238.199,267.904 237.519,269.116 237.095 C 270.768 236.518,271.508 235.916,273.188 233.777 C 274.317 232.340,275.637 231.013,276.121 230.828 C 277.723 230.215,278.413 228.953,279.443 224.755 C 280.208 221.635,280.740 220.301,281.581 219.400 C 283.144 217.726,284.968 211.717,284.667 209.234 C 284.312 206.306,285.322 204.106,287.261 203.584 C 288.825 203.162,291.981 197.756,293.557 192.800 C 293.829 191.945,294.469 191.135,295.201 190.719 C 296.275 190.108,296.400 189.834,296.400 188.096 C 296.400 187.029,296.738 185.085,297.150 183.778 C 297.563 182.470,298.107 180.066,298.360 178.436 C 299.009 174.252,300.034 172.238,303.158 169.014 C 307.989 164.029,314.400 152.122,314.400 148.136 C 314.400 146.495,314.614 145.808,315.422 144.847 C 316.357 143.736,316.420 143.430,316.171 141.227 C 315.900 138.834,315.907 138.814,317.346 137.540 C 318.888 136.175,320.400 133.651,320.400 132.442 C 320.400 132.038,320.760 131.250,321.200 130.691 C 322.360 129.216,322.190 128.215,320.552 126.865 L 319.104 125.671 320.713 124.655 C 321.598 124.096,322.924 122.881,323.661 121.954 C 326.192 118.769,327.494 117.600,328.511 117.600 C 330.070 117.600,330.536 116.649,330.570 113.405 C 330.599 110.600,330.682 110.344,332.322 108.019 C 335.062 104.134,336.303 98.108,336.062 89.870 C 336.024 88.589,336.274 86.457,336.617 85.134 C 337.213 82.836,337.202 82.610,336.380 80.141 C 335.785 78.352,335.602 77.116,335.786 76.133 C 336.004 74.972,335.903 74.608,335.235 74.139 L 334.417 73.566 335.208 72.089 C 335.737 71.102,336.005 69.813,336.016 68.206 C 336.036 65.291,337.986 62.667,340.677 61.932 C 342.985 61.303,345.600 58.466,345.600 56.593 C 345.600 56.003,346.131 55.355,347.188 54.655 C 348.137 54.027,349.728 52.194,351.138 50.102 C 352.437 48.176,354.609 45.545,355.966 44.256 L 358.433 41.912 360.716 42.181 C 367.552 42.985,370.718 44.596,373.000 48.431 C 373.571 49.389,374.374 49.986,375.800 50.512 C 379.056 51.712,379.190 52.023,377.510 54.489 C 376.718 55.650,375.889 57.276,375.667 58.103 C 375.445 58.929,374.551 60.414,373.682 61.402 C 370.681 64.811,370.400 66.136,372.432 67.296 C 373.592 67.958,373.621 68.035,373.025 68.885 C 372.122 70.175,372.216 72.650,373.200 73.493 C 374.148 74.304,374.227 74.800,373.409 74.800 C 372.342 74.800,371.689 76.540,371.232 80.600 C 370.916 83.413,370.547 84.922,369.991 85.684 C 369.556 86.280,369.200 86.996,369.200 87.276 C 369.200 87.556,368.807 88.734,368.326 89.894 L 367.452 92.003 368.355 93.224 C 369.857 95.257,369.912 96.977,368.527 98.715 C 366.291 101.524,364.975 104.651,365.369 106.221 C 365.755 107.759,366.615 107.202,366.469 105.508 C 366.401 104.723,366.538 103.962,366.773 103.817 C 367.008 103.672,367.200 103.267,367.200 102.918 C 367.200 102.568,367.830 101.514,368.599 100.575 C 370.631 98.095,371.199 95.340,370.059 93.495 C 368.832 91.509,368.843 91.438,371.257 86.144 C 371.673 85.233,372.251 82.766,372.542 80.662 C 373.088 76.719,373.587 75.600,374.800 75.600 C 376.699 75.600,376.674 73.513,374.768 72.849 C 373.444 72.387,373.248 71.265,374.200 69.600 C 375.161 67.920,374.957 66.813,373.600 66.340 C 372.940 66.110,372.400 65.826,372.400 65.708 C 372.400 65.260,374.172 62.549,375.215 61.400 C 375.815 60.740,376.535 59.480,376.816 58.600 C 377.097 57.720,377.928 56.125,378.663 55.055 C 380.807 51.937,380.410 50.803,376.693 49.432 C 374.600 48.660,373.600 47.859,373.600 46.956 C 373.600 46.174,370.589 43.253,369.257 42.743 C 366.015 41.501,359.123 40.521,357.600 41.085 M252.200 276.737 C 250.550 277.745,250.219 278.208,248.248 282.258 C 246.358 286.140,246.132 286.328,241.810 287.641 C 239.452 288.357,238.670 288.842,236.758 290.779 C 235.073 292.484,234.006 293.206,232.581 293.605 C 231.528 293.900,230.071 294.665,229.342 295.305 C 228.613 295.945,226.891 296.809,225.515 297.226 C 223.645 297.792,222.708 298.347,221.802 299.426 C 220.686 300.756,220.508 300.832,219.546 300.394 C 218.329 299.839,217.540 300.158,214.987 302.239 C 213.251 303.654,211.347 304.538,210.784 304.190 C 210.135 303.789,207.768 305.084,207.027 306.245 C 206.622 306.880,205.869 307.760,205.355 308.200 C 204.446 308.977,204.432 309.083,204.877 311.880 C 205.574 316.256,207.161 316.574,213.400 313.588 C 215.183 312.735,217.690 312.122,223.148 311.205 C 231.598 309.786,232.235 309.529,234.334 306.694 C 235.187 305.542,236.743 303.880,237.791 303.000 C 238.839 302.120,241.070 300.013,242.748 298.318 C 245.988 295.047,247.120 294.400,249.604 294.400 C 252.511 294.400,254.710 290.911,254.190 287.126 C 254.025 285.924,254.179 283.796,254.602 281.448 C 255.528 276.304,254.905 275.083,252.200 276.737 M253.779 279.100 C 253.638 279.925,253.268 281.744,252.957 283.142 C 252.541 285.015,252.499 286.081,252.797 287.189 C 253.591 290.138,251.679 293.184,249.026 293.194 C 246.624 293.203,244.176 294.601,242.367 296.997 C 241.494 298.154,239.799 299.751,238.602 300.546 C 237.405 301.341,235.688 302.938,234.788 304.096 C 231.211 308.690,231.000 308.809,224.988 309.607 C 219.120 310.385,215.423 311.261,212.400 312.589 C 207.485 314.747,205.585 314.745,207.617 312.582 C 208.260 311.897,208.402 311.477,208.114 311.112 C 206.529 309.102,208.002 305.600,210.433 305.600 C 212.160 305.600,214.206 304.637,216.423 302.781 C 218.046 301.422,218.496 301.223,219.157 301.577 C 220.549 302.322,221.436 302.038,222.724 300.435 C 223.735 299.177,224.389 298.783,226.063 298.424 C 227.345 298.149,228.771 297.467,229.773 296.650 C 230.668 295.920,232.325 295.017,233.456 294.644 C 234.586 294.271,235.887 293.568,236.345 293.083 C 236.804 292.597,237.695 291.629,238.327 290.932 C 239.188 289.980,240.334 289.402,242.925 288.612 C 246.883 287.404,248.136 286.251,249.643 282.431 C 251.194 278.497,254.313 275.985,253.779 279.100 " stroke="none" fill="#171717" fill-rule="evenodd"></path><path id="path1" d="M0.000 250.000 L 0.000 500.000 200.000 500.000 L 400.000 500.000 400.000 250.000 L 400.000 0.000 200.000 0.000 L 0.000 0.000 0.000 250.000 M366.948 41.768 C 370.686 42.857,372.265 44.050,374.200 47.246 C 374.780 48.203,375.487 48.708,376.768 49.078 C 380.561 50.173,381.290 52.378,378.888 55.490 C 378.247 56.321,377.510 57.757,377.250 58.683 C 376.991 59.609,376.134 61.049,375.348 61.883 C 372.895 64.483,372.633 65.329,374.026 66.152 C 375.409 66.969,375.498 67.849,374.412 69.977 C 373.554 71.658,373.695 71.978,375.743 72.994 C 377.356 73.795,377.065 75.115,375.087 75.963 L 373.317 76.721 373.036 79.861 C 372.689 83.730,372.087 86.230,371.356 86.837 C 371.050 87.090,370.799 87.681,370.799 88.149 C 370.798 88.617,370.442 89.583,370.007 90.295 L 369.218 91.590 370.209 93.051 C 371.744 95.313,371.576 97.450,369.675 99.864 C 366.757 103.568,366.219 105.419,367.645 106.845 C 368.360 107.560,368.452 107.987,368.238 109.596 C 368.047 111.040,368.181 111.956,368.793 113.383 C 369.954 116.092,369.838 117.332,368.258 119.099 C 366.068 121.548,365.925 122.042,366.226 126.136 L 366.498 129.838 364.826 131.770 C 363.698 133.073,363.242 133.913,363.426 134.351 C 364.368 136.596,364.495 137.165,364.262 138.096 C 364.103 138.727,363.526 139.341,362.785 139.666 C 361.224 140.351,361.050 141.180,361.764 144.538 C 362.707 148.976,361.760 152.561,359.222 154.162 C 355.416 156.563,354.391 158.786,354.867 163.600 C 355.052 165.470,355.096 167.270,354.964 167.600 C 353.904 170.264,353.589 172.645,354.056 174.466 C 354.553 176.408,354.450 177.072,353.155 180.282 C 352.697 181.418,352.743 181.817,353.559 183.786 L 354.480 186.008 353.440 187.997 C 352.252 190.268,352.126 191.830,353.025 193.114 C 353.369 193.605,354.064 195.223,354.570 196.711 C 355.076 198.198,355.874 200.170,356.345 201.092 C 357.506 203.367,357.456 205.533,356.203 207.241 C 354.528 209.525,353.827 211.371,353.019 215.619 C 352.720 217.192,351.052 219.234,345.344 225.017 C 341.192 229.224,339.944 230.747,339.401 232.271 C 339.023 233.332,338.529 234.701,338.303 235.313 C 338.077 235.925,337.377 237.074,336.746 237.868 C 335.364 239.607,335.324 240.360,336.500 242.410 L 337.400 243.978 336.526 246.484 L 335.652 248.989 336.479 250.328 L 337.306 251.667 336.448 252.733 C 335.584 253.806,335.058 254.790,334.638 256.118 C 334.012 258.099,330.023 258.385,325.337 256.784 C 321.515 255.478,321.276 254.740,323.801 252.040 C 325.151 250.597,325.691 249.640,325.956 248.222 C 326.151 247.182,326.510 246.130,326.755 245.885 C 327.369 245.271,327.312 244.800,326.622 244.800 C 326.305 244.800,325.555 244.379,324.956 243.864 L 323.867 242.927 324.813 240.964 C 325.333 239.884,325.993 238.762,326.279 238.471 C 326.953 237.787,326.936 237.383,326.146 235.313 C 325.421 233.415,325.159 233.324,323.019 234.218 C 322.206 234.557,321.194 234.725,320.769 234.590 C 319.049 234.044,314.432 239.308,309.709 247.200 C 309.248 247.970,308.561 249.680,308.182 251.000 C 307.074 254.861,305.847 257.260,303.854 259.465 C 300.825 262.818,299.869 266.024,302.801 262.999 C 304.223 261.532,307.657 260.000,309.525 260.000 C 310.128 260.000,311.696 259.466,313.010 258.813 C 317.834 256.416,319.956 257.782,322.983 265.232 C 326.175 273.088,325.636 281.371,321.830 282.962 C 321.151 283.245,318.977 284.784,316.998 286.381 C 311.283 290.992,308.418 292.054,306.600 290.236 C 306.050 289.686,305.600 288.958,305.600 288.618 C 305.600 286.356,299.998 291.365,293.303 299.613 C 292.810 300.221,291.460 301.347,290.303 302.115 C 289.146 302.884,287.866 303.882,287.459 304.334 C 287.051 304.785,286.196 305.269,285.559 305.409 C 283.822 305.791,283.942 307.555,285.800 308.973 C 288.218 310.818,287.022 314.686,282.749 318.832 C 281.484 320.060,280.320 321.578,280.163 322.205 C 279.746 323.868,277.054 326.210,272.766 328.640 C 270.695 329.814,268.772 330.916,268.494 331.087 C 268.216 331.259,267.638 332.368,267.210 333.551 C 266.339 335.960,265.500 337.058,264.247 337.433 C 263.781 337.572,262.680 338.371,261.800 339.209 C 260.119 340.809,257.418 342.595,254.400 344.101 C 252.768 344.916,252.020 345.000,246.400 345.005 L 240.200 345.011 237.600 346.358 C 234.545 347.942,232.940 349.215,231.698 351.039 C 230.731 352.459,227.141 354.761,224.574 355.609 C 219.847 357.169,212.211 361.372,207.759 364.865 C 205.038 367.000,203.661 369.475,202.790 373.800 C 201.262 381.382,196.699 383.672,191.854 379.287 C 190.724 378.264,189.399 377.078,188.908 376.651 C 186.416 374.484,181.216 374.640,177.248 377.001 C 175.412 378.094,173.740 378.800,172.988 378.800 C 171.883 378.800,170.000 380.440,170.000 381.403 C 170.000 381.532,169.353 382.650,168.561 383.887 L 167.123 386.136 167.561 389.084 C 167.803 390.705,168.360 392.737,168.800 393.600 C 170.228 396.399,169.817 399.227,167.644 401.553 C 166.960 402.285,166.400 403.115,166.400 403.397 C 166.400 403.679,165.799 404.785,165.065 405.855 C 162.647 409.378,162.641 409.401,163.627 411.780 C 164.737 414.459,164.483 415.580,162.513 416.692 C 160.533 417.809,158.588 419.853,157.844 421.600 C 157.516 422.370,156.380 423.924,155.320 425.053 C 154.260 426.182,152.432 428.844,151.259 430.968 C 148.825 435.375,147.876 436.216,145.779 435.822 C 144.597 435.601,144.039 435.764,142.508 436.778 C 141.493 437.450,140.148 438.000,139.519 438.000 C 138.068 438.000,134.903 439.320,127.600 442.974 C 118.394 447.578,103.021 452.287,94.635 453.070 C 92.557 453.264,91.747 453.574,89.961 454.860 C 82.693 460.092,81.437 460.446,75.278 458.993 C 73.523 458.580,71.758 458.474,69.478 458.645 C 67.095 458.825,65.599 458.723,64.000 458.272 C 62.790 457.932,59.954 457.532,57.698 457.383 C 54.144 457.149,53.210 456.927,50.698 455.715 C 49.104 454.947,47.017 454.078,46.061 453.786 C 45.105 453.494,43.648 452.788,42.824 452.217 C 41.965 451.622,40.343 451.019,39.024 450.804 C 37.166 450.501,36.383 450.117,34.969 448.815 C 33.799 447.736,32.849 447.200,32.106 447.200 C 30.025 447.200,28.363 446.447,26.080 444.469 C 24.826 443.383,23.139 442.218,22.331 441.881 C 20.345 441.051,19.436 439.602,19.773 437.803 C 20.369 434.625,22.735 433.600,29.471 433.600 C 32.077 433.600,33.195 433.415,34.450 432.774 C 35.553 432.212,37.364 431.840,40.134 431.606 C 42.370 431.418,45.259 430.891,46.554 430.435 C 51.891 428.555,62.821 427.574,69.689 428.357 L 73.578 428.801 75.330 427.049 C 76.293 426.086,77.494 424.446,77.998 423.404 C 79.258 420.801,80.754 420.190,84.800 420.625 C 91.548 421.351,94.411 421.133,96.400 419.741 C 98.309 418.406,100.051 417.840,103.563 417.417 C 107.007 417.001,107.760 416.407,109.637 412.619 C 111.034 409.799,111.552 409.132,112.756 408.600 C 113.550 408.249,114.560 407.758,115.000 407.510 C 117.129 406.308,117.868 406.005,118.673 406.002 C 119.194 406.001,119.649 405.677,119.800 405.200 C 119.940 404.759,120.444 404.191,120.919 403.936 C 121.395 403.681,122.119 403.048,122.528 402.528 C 122.936 402.009,123.840 401.292,124.535 400.934 C 126.181 400.089,128.374 397.759,129.053 396.135 C 129.348 395.428,130.314 393.816,131.199 392.553 C 132.084 391.290,133.005 389.523,133.246 388.628 C 133.782 386.635,135.430 383.751,136.202 383.455 C 136.514 383.335,137.341 382.105,138.039 380.723 C 138.737 379.340,139.892 377.667,140.605 377.005 C 141.321 376.340,142.486 374.456,143.206 372.800 C 146.209 365.886,149.705 362.616,160.719 356.420 C 165.350 353.815,171.296 351.020,173.434 350.445 C 174.691 350.106,176.114 348.965,179.794 345.347 L 184.535 340.685 184.105 339.076 C 183.594 337.162,183.779 336.519,184.937 336.173 C 185.412 336.031,186.825 334.852,188.077 333.553 C 189.356 332.226,191.143 330.853,192.152 330.421 C 194.230 329.530,195.013 328.484,195.399 326.084 C 195.838 323.357,199.767 318.310,202.441 317.039 C 203.464 316.552,203.407 316.263,201.959 314.614 C 200.455 312.901,200.528 312.905,198.073 314.431 C 194.196 316.841,191.719 314.757,195.191 312.007 C 196.090 311.295,197.225 309.877,197.713 308.856 C 198.204 307.827,199.166 306.643,199.870 306.200 C 200.569 305.760,201.256 304.950,201.397 304.400 C 201.847 302.651,202.803 301.570,204.572 300.812 C 206.134 300.143,208.000 298.234,208.000 297.307 C 208.000 296.041,210.653 293.104,212.650 292.159 C 213.938 291.550,215.038 290.704,215.371 290.068 C 216.433 288.035,219.406 285.843,225.800 282.380 C 230.486 279.842,232.788 278.308,234.714 276.438 C 235.656 275.523,236.967 274.667,237.628 274.534 C 239.274 274.205,239.726 273.134,239.637 269.768 C 239.571 267.295,239.699 266.690,240.551 265.434 C 241.096 264.631,241.665 263.394,241.814 262.687 C 241.964 261.979,242.869 259.758,243.826 257.750 C 246.024 253.138,247.185 252.003,255.643 246.200 C 260.094 243.147,263.111 240.526,264.662 238.367 C 265.765 236.832,266.504 236.256,268.083 235.704 C 269.692 235.141,270.455 234.535,271.886 232.681 C 272.870 231.406,274.371 229.923,275.221 229.387 C 276.866 228.348,277.376 227.189,278.394 222.176 C 278.719 220.576,279.244 219.408,280.002 218.600 C 280.621 217.940,281.313 216.770,281.539 216.000 C 281.766 215.230,282.247 213.790,282.609 212.800 C 283.072 211.532,283.191 210.397,283.012 208.961 C 282.586 205.548,284.406 202.000,286.583 202.000 C 287.550 202.000,291.025 195.622,291.970 192.110 C 292.284 190.945,292.786 190.217,293.611 189.730 C 294.605 189.143,294.800 188.773,294.800 187.476 C 294.800 186.622,295.139 184.726,295.554 183.262 C 295.968 181.798,296.490 179.395,296.714 177.923 C 297.320 173.929,298.798 171.111,302.106 167.638 C 306.656 162.862,312.288 152.426,312.770 147.881 C 312.915 146.516,313.351 144.921,313.739 144.336 C 314.218 143.615,314.470 142.374,314.523 140.488 C 314.600 137.711,314.604 137.701,316.480 136.023 C 318.014 134.650,318.409 134.014,318.626 132.566 C 318.772 131.589,319.252 130.333,319.692 129.774 C 320.131 129.215,320.426 128.713,320.346 128.658 C 320.266 128.603,319.748 128.277,319.196 127.933 C 316.719 126.390,316.791 124.517,319.368 123.438 C 320.046 123.154,321.230 122.171,322.000 121.252 C 325.707 116.831,326.245 116.331,327.592 116.055 L 328.969 115.774 328.984 112.956 C 328.998 110.474,329.153 109.903,330.284 108.169 C 333.454 103.305,333.621 102.781,334.023 96.464 C 334.228 93.239,334.301 90.060,334.184 89.400 C 334.067 88.740,334.320 86.962,334.746 85.448 C 335.516 82.715,335.516 82.682,334.722 80.448 C 334.282 79.212,333.939 77.525,333.959 76.700 C 333.983 75.671,333.820 75.200,333.440 75.200 C 332.415 75.200,332.401 73.971,333.404 71.992 C 334.142 70.536,334.400 69.394,334.400 67.587 C 334.400 64.436,336.952 61.075,339.911 60.330 C 341.865 59.838,343.397 58.167,344.045 55.823 C 344.321 54.821,344.904 54.092,345.963 53.424 C 346.865 52.854,348.398 51.109,349.733 49.132 C 355.783 40.176,358.094 39.188,366.948 41.768 M356.088 44.700 C 354.769 45.965,352.783 48.350,351.676 50.000 C 349.572 53.135,348.920 53.880,347.100 55.238 C 346.470 55.708,346.000 56.442,346.000 56.957 C 346.000 58.304,343.318 61.178,341.232 62.068 C 338.052 63.422,336.400 65.386,336.400 67.810 C 336.400 68.936,336.114 70.697,335.765 71.722 C 335.178 73.443,335.181 73.638,335.796 74.253 C 336.394 74.852,336.425 75.310,335.950 76.600 C 335.870 76.820,336.246 78.297,336.787 79.883 L 337.770 82.767 336.878 85.797 C 336.175 88.188,336.082 89.005,336.437 89.668 C 336.763 90.279,336.770 91.122,336.461 92.754 C 336.227 93.989,335.943 96.748,335.829 98.885 C 335.597 103.277,335.144 104.612,332.713 108.078 C 331.065 110.427,331.000 110.635,330.987 113.560 C 330.972 117.225,330.836 117.479,328.591 118.044 C 327.143 118.409,326.528 118.888,325.127 120.744 C 323.403 123.026,321.753 124.627,320.269 125.453 C 319.489 125.887,319.505 125.931,320.680 126.538 C 322.427 127.442,323.008 129.398,321.820 130.383 C 321.258 130.850,320.740 132.194,320.218 134.539 C 320.079 135.166,319.145 136.425,318.142 137.338 L 316.319 138.997 316.580 141.307 C 316.799 143.244,316.713 143.799,316.044 144.738 C 315.605 145.354,315.119 146.835,314.963 148.029 C 314.267 153.347,308.090 164.588,303.108 169.600 C 300.285 172.440,298.762 175.936,298.209 180.841 C 298.071 182.074,297.697 183.947,297.379 185.005 C 297.060 186.062,296.800 187.536,296.800 188.279 C 296.800 189.329,296.442 189.983,295.200 191.200 C 294.320 192.063,293.600 193.099,293.600 193.504 C 293.600 195.428,289.031 203.390,287.675 203.828 C 285.551 204.515,284.717 206.129,285.001 209.000 C 285.331 212.325,283.504 218.060,281.464 220.099 C 280.817 220.747,280.408 221.864,280.071 223.904 C 279.419 227.849,278.256 230.109,276.318 231.198 C 275.439 231.692,274.196 232.943,273.478 234.056 C 272.441 235.663,271.692 236.277,269.505 237.318 C 268.022 238.023,266.708 238.904,266.585 239.276 C 266.126 240.663,261.929 244.323,256.353 248.200 C 247.496 254.358,246.488 255.522,244.230 262.200 C 243.635 263.960,242.778 265.916,242.327 266.547 C 241.616 267.540,241.541 268.054,241.769 270.364 C 242.076 273.484,241.133 275.444,239.000 276.117 C 238.340 276.325,237.080 277.169,236.200 277.991 C 234.203 279.858,231.953 281.356,227.600 283.718 C 222.277 286.607,218.586 289.241,217.116 291.200 C 216.373 292.190,215.053 293.334,214.183 293.742 C 211.956 294.785,211.271 295.486,209.977 298.047 C 208.808 300.361,207.082 302.130,205.504 302.631 C 204.351 302.996,203.717 303.832,203.201 305.663 C 202.897 306.741,202.481 307.233,201.618 307.534 C 200.829 307.809,200.178 308.499,199.623 309.646 C 198.611 311.741,198.611 311.729,199.637 311.180 C 200.752 310.584,202.285 311.009,202.600 312.001 C 202.859 312.817,204.302 313.831,204.674 313.459 C 204.788 313.346,204.729 313.016,204.544 312.727 C 202.723 309.871,206.658 304.222,210.865 303.651 C 212.605 303.415,213.458 302.999,215.324 301.479 C 217.643 299.590,219.018 299.178,219.935 300.095 C 220.329 300.489,220.640 300.323,221.450 299.287 C 222.625 297.787,224.003 297.005,226.016 296.695 C 226.811 296.573,227.999 295.949,228.722 295.273 C 229.432 294.610,231.180 293.649,232.608 293.137 C 234.668 292.398,235.443 291.872,236.363 290.591 C 237.687 288.749,238.252 288.414,242.400 287.017 C 245.687 285.909,247.049 284.710,247.959 282.120 C 250.027 276.229,255.613 273.309,255.595 278.129 C 255.593 278.828,255.247 280.800,254.827 282.512 C 254.275 284.757,254.163 285.973,254.423 286.879 C 255.521 290.709,253.138 294.322,249.154 294.867 C 246.332 295.253,245.387 295.815,243.640 298.147 C 242.915 299.114,241.600 300.421,240.717 301.052 C 237.785 303.147,236.055 304.834,234.617 307.001 C 232.834 309.687,230.639 310.607,224.000 311.451 C 218.514 312.148,215.857 312.844,212.487 314.469 C 209.362 315.974,207.148 316.320,205.894 315.499 C 204.990 314.906,204.975 314.920,205.122 316.186 C 205.257 317.342,205.064 317.632,203.283 318.939 C 199.576 321.660,198.201 323.589,197.217 327.448 C 196.631 329.746,195.544 330.970,192.778 332.444 C 191.168 333.302,189.946 334.336,189.022 335.623 C 188.268 336.672,187.280 337.648,186.826 337.792 C 186.163 338.002,186.079 338.201,186.400 338.801 C 187.207 340.308,186.769 341.173,183.500 344.528 C 178.141 350.027,175.913 351.834,173.549 352.597 C 162.515 356.163,148.890 365.669,146.026 371.800 C 143.929 376.288,143.561 376.923,142.200 378.400 C 141.491 379.170,140.488 380.610,139.971 381.600 C 139.454 382.590,138.450 384.030,137.739 384.800 C 137.029 385.570,135.874 387.640,135.172 389.400 C 134.471 391.160,133.459 393.122,132.924 393.760 C 132.389 394.397,131.439 395.927,130.812 397.160 C 129.664 399.416,128.122 401.104,125.670 402.785 C 124.939 403.286,123.432 404.647,122.321 405.808 C 121.035 407.153,119.847 408.007,119.051 408.161 C 115.373 408.871,112.814 410.789,111.163 414.073 C 109.090 418.197,107.792 419.078,102.984 419.624 C 100.214 419.939,99.153 420.246,98.123 421.032 C 94.826 423.547,91.767 424.119,87.600 423.000 C 82.722 421.691,80.917 422.175,79.390 425.200 C 79.001 425.970,77.773 427.528,76.660 428.663 L 74.638 430.726 67.019 430.514 C 57.821 430.258,51.834 430.794,47.630 432.248 C 45.666 432.928,43.404 433.364,41.200 433.488 C 38.944 433.614,36.969 434.002,35.332 434.639 C 33.382 435.398,32.111 435.600,29.282 435.600 C 21.834 435.600,19.057 437.898,23.676 440.239 C 24.818 440.817,26.286 441.824,26.939 442.477 C 28.807 444.345,29.920 444.923,32.261 445.241 C 34.029 445.481,34.768 445.837,36.163 447.123 C 37.520 448.374,38.315 448.768,39.927 448.990 C 41.114 449.153,42.688 449.746,43.685 450.405 C 44.628 451.028,45.940 451.653,46.600 451.794 C 47.260 451.935,49.060 452.673,50.600 453.435 C 52.999 454.622,54.145 454.904,58.600 455.402 C 61.460 455.722,64.430 456.169,65.200 456.396 C 66.003 456.632,68.049 456.703,70.000 456.563 C 72.457 456.386,74.156 456.496,76.125 456.959 C 81.281 458.172,82.384 457.898,87.200 454.204 C 90.001 452.055,91.670 451.201,93.080 451.195 C 94.518 451.189,103.828 449.202,109.000 447.797 C 116.284 445.820,120.102 444.351,127.889 440.531 C 132.347 438.344,136.567 436.550,137.898 436.275 C 139.164 436.014,140.920 435.353,141.800 434.806 C 142.930 434.103,143.975 433.810,145.361 433.806 L 147.322 433.800 149.450 430.000 C 150.621 427.910,152.439 425.217,153.489 424.016 C 154.540 422.815,155.690 421.195,156.045 420.416 C 156.750 418.866,160.154 415.332,161.288 414.972 C 162.250 414.667,162.205 412.986,161.200 411.709 C 160.071 410.274,160.731 408.260,163.738 403.967 C 164.054 403.517,164.221 402.800,164.109 402.375 C 163.845 401.363,165.086 399.470,165.827 399.755 C 167.342 400.336,167.995 396.743,166.800 394.400 C 166.360 393.538,166.000 392.449,166.000 391.982 C 166.000 391.514,165.698 389.999,165.329 388.614 L 164.659 386.098 166.974 382.349 C 170.046 377.373,170.606 376.800,172.388 376.800 C 173.432 376.800,174.600 376.299,176.563 375.010 C 181.921 371.491,187.131 372.156,192.441 377.038 C 196.943 381.176,199.033 379.926,201.198 371.800 C 202.578 366.620,203.826 364.936,208.800 361.540 C 214.130 357.902,215.243 357.325,224.938 353.168 C 227.576 352.037,228.446 351.404,230.406 349.193 C 232.256 347.107,233.461 346.196,236.242 344.782 L 239.746 343.000 245.408 343.114 C 250.422 343.214,251.272 343.133,252.835 342.407 C 256.328 340.785,259.315 338.886,260.625 337.456 C 261.359 336.655,262.135 336.000,262.349 336.000 C 263.211 336.000,265.158 333.900,265.419 332.689 C 265.927 330.330,266.678 329.393,268.867 328.390 C 274.040 326.019,277.796 323.041,278.389 320.842 C 278.669 319.799,279.320 318.959,280.574 318.020 C 283.395 315.906,286.238 310.800,284.594 310.800 C 283.835 310.800,282.483 308.628,282.152 306.878 C 281.866 305.363,283.141 303.600,284.521 303.600 C 284.951 303.600,285.955 303.049,286.751 302.374 C 287.548 301.700,288.938 300.567,289.839 299.857 C 290.741 299.146,292.706 297.132,294.206 295.382 C 302.157 286.107,305.686 283.975,307.343 287.450 C 308.488 289.851,310.877 288.969,316.649 284.013 C 317.942 282.903,319.540 281.795,320.200 281.550 C 324.024 280.130,323.909 271.443,319.962 263.546 C 318.079 259.779,316.547 259.102,313.779 260.813 C 313.055 261.261,311.081 261.891,309.392 262.214 C 306.436 262.780,304.763 263.593,303.564 265.048 C 302.377 266.489,299.089 268.800,298.226 268.800 C 295.869 268.800,295.280 265.998,297.378 264.760 C 298.294 264.219,298.912 263.454,299.224 262.474 C 299.481 261.663,300.462 260.190,301.405 259.200 C 303.471 257.029,305.336 253.699,305.970 251.051 C 307.574 244.350,317.070 232.063,320.309 232.497 C 321.483 232.654,322.221 232.510,323.057 231.959 C 324.657 230.904,325.773 231.015,326.886 232.338 C 329.317 235.226,329.814 240.422,327.689 240.728 C 326.300 240.928,326.499 242.578,327.987 243.194 C 329.576 243.853,329.804 244.831,328.820 246.761 C 328.369 247.645,327.999 248.780,327.997 249.284 C 327.994 250.412,326.834 252.224,325.366 253.395 L 324.263 254.274 325.631 254.760 C 326.384 255.028,328.202 255.351,329.671 255.479 L 332.343 255.711 332.929 254.356 C 333.251 253.610,333.778 252.655,334.101 252.234 C 334.617 251.558,334.612 251.337,334.058 250.372 C 333.483 249.371,333.488 249.091,334.115 247.103 C 334.959 244.424,334.963 244.049,334.153 242.427 C 333.301 240.719,333.646 238.704,335.148 236.613 C 335.793 235.715,336.533 234.174,336.793 233.190 C 337.568 230.255,338.904 228.433,343.726 223.739 C 349.664 217.957,350.616 216.541,351.815 211.699 C 352.452 209.127,353.042 207.617,353.567 207.211 C 355.423 205.779,355.360 203.476,353.355 199.513 C 352.830 198.476,352.400 197.306,352.400 196.913 C 352.400 196.521,351.867 195.210,351.216 194.000 C 349.760 191.296,349.736 190.655,350.998 188.168 C 352.207 185.785,352.213 185.624,351.180 183.356 C 350.325 181.479,350.390 180.580,351.508 178.812 C 351.898 178.196,352.091 177.143,352.020 176.012 C 351.786 172.264,351.935 169.750,352.482 168.186 C 352.924 166.924,352.969 165.776,352.687 162.924 C 352.261 158.615,352.700 157.281,355.338 154.883 C 360.453 150.233,360.956 149.158,359.801 145.352 C 358.688 141.684,359.492 138.000,361.405 138.000 C 362.384 138.000,362.446 137.259,361.606 135.612 C 360.636 133.710,361.117 132.237,363.317 130.373 C 364.512 129.362,364.525 129.309,364.211 126.773 C 363.626 122.039,364.076 120.371,366.575 118.023 C 367.860 116.816,367.856 116.256,366.539 113.378 C 365.631 111.397,365.542 110.888,365.925 109.875 C 366.303 108.874,366.250 108.536,365.586 107.691 C 364.115 105.821,364.735 103.115,367.463 99.496 C 369.484 96.814,369.642 95.554,368.200 93.600 C 366.993 91.964,366.964 91.392,368.001 89.690 C 368.441 88.970,368.800 88.108,368.800 87.774 C 368.800 87.441,369.138 86.500,369.551 85.684 C 370.201 84.399,370.686 82.155,371.436 76.955 C 371.535 76.270,371.974 75.386,372.411 74.990 C 373.107 74.361,373.135 74.190,372.634 73.635 C 371.624 72.513,371.526 71.092,372.348 69.490 L 373.123 67.981 372.010 67.405 C 370.025 66.379,370.963 62.949,373.972 60.225 C 374.418 59.821,375.155 58.497,375.610 57.282 C 376.065 56.066,376.878 54.547,377.418 53.905 C 378.940 52.097,379.062 52.236,374.140 50.178 C 373.305 49.829,372.648 49.124,372.190 48.085 C 371.069 45.545,369.208 44.376,364.627 43.333 C 358.896 42.029,358.870 42.033,356.088 44.700 M251.949 279.045 C 251.647 279.399,250.590 281.309,249.600 283.290 C 247.604 287.282,246.506 288.159,241.984 289.377 C 239.794 289.966,239.500 290.174,237.314 292.674 C 236.656 293.427,235.038 294.433,233.363 295.130 C 231.802 295.780,230.070 296.767,229.513 297.323 C 228.846 297.991,227.836 298.433,226.550 298.622 C 224.939 298.858,224.319 299.211,222.984 300.654 C 221.378 302.389,219.604 302.977,218.987 301.978 C 218.702 301.518,217.126 302.370,215.888 303.653 C 214.835 304.746,213.221 305.462,211.239 305.715 C 208.421 306.075,207.091 308.015,208.202 310.146 C 209.001 311.677,208.956 312.296,208.000 312.893 C 207.560 313.168,207.200 313.529,207.200 313.696 C 207.200 314.312,208.468 313.962,211.783 312.430 C 215.167 310.867,217.420 310.263,221.600 309.801 C 228.706 309.015,231.426 308.021,233.089 305.600 C 234.534 303.498,236.771 301.298,238.931 299.856 C 239.773 299.294,241.059 298.052,241.788 297.097 C 243.692 294.603,245.769 293.148,247.728 292.933 C 251.822 292.485,252.013 292.211,252.422 286.200 C 252.572 284.000,252.833 281.345,253.002 280.300 C 253.325 278.300,252.957 277.861,251.949 279.045 " stroke="none" fill="#fbfbfb" fill-rule="evenodd"></path><path id="path2" d="M355.151 45.231 L 353.400 46.862 355.300 45.346 C 356.345 44.513,357.200 43.779,357.200 43.715 C 357.200 43.407,356.763 43.730,355.151 45.231 M343.578 60.300 L 342.200 61.800 343.700 60.422 C 345.096 59.138,345.384 58.800,345.078 58.800 C 345.012 58.800,344.337 59.475,343.578 60.300 M373.829 60.362 L 372.658 61.800 374.009 60.513 C 374.751 59.805,375.278 59.158,375.179 59.075 C 375.081 58.992,374.473 59.571,373.829 60.362 M337.903 61.300 C 337.385 61.795,337.240 62.000,337.580 61.756 C 337.921 61.512,338.560 61.112,339.000 60.868 C 339.440 60.624,339.585 60.419,339.322 60.412 C 339.060 60.405,338.421 60.805,337.903 61.300 M338.370 63.500 L 337.400 64.600 338.600 63.600 C 339.260 63.050,339.875 62.555,339.967 62.500 C 340.058 62.445,339.955 62.400,339.736 62.400 C 339.518 62.400,338.903 62.895,338.370 63.500 M336.124 68.200 C 336.126 69.520,336.201 70.012,336.290 69.293 C 336.379 68.574,336.377 67.494,336.286 66.893 C 336.195 66.292,336.122 66.880,336.124 68.200 M372.494 73.393 C 373.156 74.125,373.147 74.206,372.294 75.148 L 371.400 76.136 372.487 75.368 C 373.817 74.429,373.829 74.315,372.700 73.375 C 371.815 72.639,371.812 72.640,372.494 73.393 M375.947 73.298 C 376.248 73.682,376.400 74.357,376.285 74.798 C 376.169 75.240,376.238 75.500,376.437 75.377 C 377.039 75.005,376.846 73.734,376.100 73.149 C 375.466 72.652,375.452 72.666,375.947 73.298 M337.293 82.800 C 337.293 83.570,337.375 83.885,337.476 83.500 C 337.576 83.115,337.576 82.485,337.476 82.100 C 337.375 81.715,337.293 82.030,337.293 82.800 M364.901 105.400 C 364.905 106.280,364.987 106.593,365.083 106.095 C 365.179 105.598,365.175 104.878,365.075 104.495 C 364.975 104.113,364.896 104.520,364.901 105.400 M365.849 109.815 C 365.712 110.173,365.615 110.766,365.634 111.133 C 365.653 111.500,365.827 111.269,366.021 110.620 C 366.398 109.358,366.265 108.733,365.849 109.815 M326.176 116.622 C 325.412 117.234,325.413 117.238,326.200 116.876 C 326.640 116.674,327.270 116.408,327.600 116.286 C 328.118 116.093,328.115 116.059,327.576 116.032 C 327.234 116.014,326.604 116.280,326.176 116.622 M366.175 118.500 L 365.000 119.800 366.300 118.625 C 367.015 117.979,367.600 117.394,367.600 117.325 C 367.600 117.016,367.270 117.288,366.175 118.500 M321.375 122.100 L 320.200 123.400 321.500 122.225 C 322.215 121.579,322.800 120.994,322.800 120.925 C 322.800 120.616,322.470 120.888,321.375 122.100 M316.368 142.900 C 316.249 143.760,316.310 144.250,316.512 144.048 C 316.705 143.855,316.798 143.181,316.719 142.549 C 316.587 141.491,316.559 141.519,316.368 142.900 M315.280 145.280 C 315.016 145.544,314.825 146.219,314.854 146.780 L 314.909 147.800 315.093 146.800 C 315.194 146.250,315.461 145.575,315.687 145.300 C 316.211 144.662,315.913 144.647,315.280 145.280 M312.901 147.000 C 312.905 147.880,312.987 148.193,313.083 147.695 C 313.179 147.198,313.175 146.478,313.075 146.095 C 312.975 145.713,312.896 146.120,312.901 147.000 M310.200 159.200 C 309.859 159.860,309.669 160.400,309.779 160.400 C 309.889 160.400,310.259 159.860,310.600 159.200 C 310.941 158.540,311.131 158.000,311.021 158.000 C 310.911 158.000,310.541 158.540,310.200 159.200 M302.378 167.500 L 301.000 169.000 302.500 167.622 C 303.896 166.338,304.184 166.000,303.878 166.000 C 303.812 166.000,303.137 166.675,302.378 167.500 M354.101 176.200 C 354.105 177.080,354.187 177.393,354.283 176.895 C 354.379 176.398,354.375 175.678,354.275 175.295 C 354.175 174.913,354.096 175.320,354.101 176.200 M347.775 219.700 L 346.600 221.000 347.900 219.825 C 348.615 219.179,349.200 218.594,349.200 218.525 C 349.200 218.216,348.870 218.488,347.775 219.700 M346.985 223.300 L 345.000 225.400 347.100 223.415 C 349.051 221.571,349.383 221.200,349.085 221.200 C 349.022 221.200,348.077 222.145,346.985 223.300 M341.188 226.300 L 338.600 229.000 341.300 226.412 C 343.808 224.007,344.183 223.600,343.888 223.600 C 343.827 223.600,342.612 224.815,341.188 226.300 M324.000 231.355 C 324.000 231.440,324.530 231.587,325.179 231.682 C 325.827 231.777,326.267 231.708,326.155 231.528 C 325.957 231.207,324.000 231.050,324.000 231.355 M316.400 234.600 C 315.428 235.590,314.723 236.400,314.833 236.400 C 314.943 236.400,315.828 235.590,316.800 234.600 C 317.772 233.610,318.477 232.800,318.367 232.800 C 318.257 232.800,317.372 233.610,316.400 234.600 M315.775 238.100 L 314.600 239.400 315.900 238.225 C 316.615 237.579,317.200 236.994,317.200 236.925 C 317.200 236.616,316.870 236.888,315.775 238.100 M262.581 240.900 L 261.000 242.600 262.700 241.019 C 264.281 239.548,264.584 239.200,264.281 239.200 C 264.216 239.200,263.451 239.965,262.581 240.900 M336.234 242.365 C 336.396 242.676,336.661 243.486,336.823 244.165 C 337.094 245.300,337.121 245.318,337.159 244.376 C 337.182 243.814,336.917 243.004,336.570 242.576 C 336.224 242.149,336.073 242.054,336.234 242.365 M326.679 245.974 C 326.306 246.606,326.000 247.359,326.000 247.646 C 326.000 247.934,326.357 247.468,326.794 246.612 C 327.733 244.771,327.653 244.326,326.679 245.974 M323.781 252.100 L 322.200 253.800 323.900 252.219 C 325.481 250.748,325.784 250.400,325.481 250.400 C 325.416 250.400,324.651 251.165,323.781 252.100 M329.500 255.882 C 329.995 255.978,330.805 255.978,331.300 255.882 C 331.795 255.787,331.390 255.709,330.400 255.709 C 329.410 255.709,329.005 255.787,329.500 255.882 M315.700 257.876 C 316.085 257.976,316.715 257.976,317.100 257.876 C 317.485 257.775,317.170 257.693,316.400 257.693 C 315.630 257.693,315.315 257.775,315.700 257.876 M329.905 257.883 C 330.402 257.979,331.122 257.975,331.505 257.875 C 331.887 257.775,331.480 257.696,330.600 257.701 C 329.720 257.705,329.407 257.787,329.905 257.883 M315.200 259.756 C 315.200 259.842,315.817 259.985,316.572 260.073 C 317.327 260.161,317.856 260.090,317.748 259.916 C 317.555 259.603,315.200 259.455,315.200 259.756 M302.175 266.100 L 301.000 267.400 302.300 266.225 C 303.015 265.579,303.600 264.994,303.600 264.925 C 303.600 264.616,303.270 264.888,302.175 266.100 M241.693 272.000 C 241.693 272.770,241.775 273.085,241.876 272.700 C 241.976 272.315,241.976 271.685,241.876 271.300 C 241.775 270.915,241.693 271.230,241.693 272.000 M324.914 275.400 C 324.917 276.500,324.995 276.903,325.087 276.295 C 325.179 275.686,325.177 274.786,325.082 274.295 C 324.987 273.803,324.911 274.300,324.914 275.400 M235.781 278.100 L 234.200 279.800 235.900 278.219 C 237.481 276.748,237.784 276.400,237.481 276.400 C 237.416 276.400,236.651 277.165,235.781 278.100 M255.309 278.400 C 255.309 279.390,255.387 279.795,255.482 279.300 C 255.578 278.805,255.578 277.995,255.482 277.500 C 255.387 277.005,255.309 277.410,255.309 278.400 M253.115 279.200 C 253.212 279.860,253.360 280.400,253.445 280.400 C 253.530 280.400,253.600 279.860,253.600 279.200 C 253.600 278.540,253.451 278.000,253.269 278.000 C 253.087 278.000,253.018 278.540,253.115 279.200 M323.632 280.769 C 323.614 281.081,323.292 281.711,322.915 282.169 C 322.269 282.953,322.283 282.951,323.162 282.142 C 323.675 281.670,323.997 281.040,323.879 280.742 C 323.704 280.303,323.657 280.308,323.632 280.769 M217.339 287.846 L 215.400 289.692 217.200 288.190 C 219.615 286.174,219.799 286.000,219.519 286.000 C 219.386 286.000,218.405 286.831,217.339 287.846 M306.925 290.500 C 307.345 290.885,307.984 291.189,308.344 291.175 C 308.759 291.159,308.640 291.006,308.022 290.759 C 307.483 290.544,306.845 290.240,306.603 290.084 C 306.360 289.928,306.506 290.115,306.925 290.500 M237.026 292.700 C 236.162 293.805,236.093 293.990,236.763 293.404 C 237.565 292.704,238.623 291.200,238.314 291.200 C 238.251 291.200,237.672 291.875,237.026 292.700 M242.975 295.700 L 241.800 297.000 243.100 295.825 C 244.312 294.730,244.584 294.400,244.275 294.400 C 244.206 294.400,243.621 294.985,242.975 295.700 M210.100 303.876 C 210.485 303.976,211.115 303.976,211.500 303.876 C 211.885 303.775,211.570 303.693,210.800 303.693 C 210.030 303.693,209.715 303.775,210.100 303.876 M282.837 304.561 C 282.253 305.182,281.997 305.853,282.113 306.461 C 282.279 307.336,282.295 307.327,282.346 306.329 C 282.378 305.694,282.829 304.921,283.454 304.429 C 284.034 303.973,284.335 303.600,284.124 303.600 C 283.912 303.600,283.333 304.032,282.837 304.561 M207.602 309.505 C 207.601 309.783,207.823 310.368,208.096 310.805 C 208.497 311.447,208.485 311.773,208.032 312.500 C 207.519 313.324,207.528 313.354,208.136 312.851 C 208.956 312.174,208.969 311.616,208.202 310.146 C 207.874 309.516,207.604 309.227,207.602 309.505 M204.187 311.240 C 204.041 311.702,204.073 312.233,204.260 312.419 C 204.447 312.604,204.619 312.226,204.643 311.578 C 204.693 310.188,204.554 310.084,204.187 311.240 M204.102 314.015 C 204.372 314.447,204.712 314.800,204.859 314.800 C 205.005 314.800,205.078 315.115,205.020 315.500 C 204.962 315.885,204.993 315.973,205.088 315.695 C 205.183 315.417,205.458 315.312,205.699 315.461 C 205.940 315.610,205.791 315.260,205.368 314.683 C 204.411 313.376,203.355 312.819,204.102 314.015 M200.175 321.300 L 199.000 322.600 200.300 321.425 C 201.512 320.330,201.784 320.000,201.475 320.000 C 201.406 320.000,200.821 320.585,200.175 321.300 M264.841 336.634 C 264.093 337.165,263.678 337.600,263.919 337.600 C 264.159 337.600,264.860 337.156,265.478 336.613 C 266.891 335.369,266.608 335.379,264.841 336.634 M184.244 339.400 C 184.573 340.871,184.802 341.190,184.794 340.167 C 184.791 339.745,184.605 339.130,184.382 338.800 C 184.085 338.362,184.048 338.524,184.244 339.400 M186.400 340.111 C 186.400 340.612,186.116 341.467,185.768 342.011 L 185.136 343.000 185.968 342.056 C 186.698 341.228,187.146 339.200,186.600 339.200 C 186.490 339.200,186.400 339.610,186.400 340.111 M182.575 342.500 L 181.400 343.800 182.700 342.625 C 183.912 341.530,184.184 341.200,183.875 341.200 C 183.806 341.200,183.221 341.785,182.575 342.500 M248.500 343.476 C 248.885 343.576,249.515 343.576,249.900 343.476 C 250.285 343.375,249.970 343.293,249.200 343.293 C 248.430 343.293,248.115 343.375,248.500 343.476 M231.578 347.900 L 230.200 349.400 231.700 348.022 C 233.096 346.738,233.384 346.400,233.078 346.400 C 233.012 346.400,232.337 347.075,231.578 347.900 M204.778 364.700 L 203.400 366.200 204.900 364.822 C 205.725 364.063,206.400 363.388,206.400 363.322 C 206.400 363.016,206.062 363.304,204.778 364.700 M149.781 366.100 L 148.200 367.800 149.900 366.219 C 151.481 364.748,151.784 364.400,151.481 364.400 C 151.416 364.400,150.651 365.165,149.781 366.100 M181.507 373.090 C 182.226 373.179,183.306 373.177,183.907 373.086 C 184.508 372.995,183.920 372.922,182.600 372.924 C 181.280 372.926,180.788 373.001,181.507 373.090 M191.800 376.800 C 192.659 377.680,193.452 378.400,193.562 378.400 C 193.672 378.400,193.059 377.680,192.200 376.800 C 191.341 375.920,190.548 375.200,190.438 375.200 C 190.328 375.200,190.941 375.920,191.800 376.800 M141.978 378.300 L 140.600 379.800 142.100 378.422 C 143.496 377.138,143.784 376.800,143.478 376.800 C 143.412 376.800,142.737 377.475,141.978 378.300 M196.400 379.200 L 195.000 379.495 196.276 379.547 C 196.978 379.576,197.664 379.420,197.800 379.200 C 197.936 378.980,197.992 378.824,197.924 378.853 C 197.856 378.882,197.170 379.038,196.400 379.200 M195.700 381.476 C 196.085 381.576,196.715 381.576,197.100 381.476 C 197.485 381.375,197.170 381.293,196.400 381.293 C 195.630 381.293,195.315 381.375,195.700 381.476 M128.181 400.500 L 126.600 402.200 128.300 400.619 C 129.881 399.148,130.184 398.800,129.881 398.800 C 129.816 398.800,129.051 399.565,128.181 400.500 M164.723 405.900 C 164.018 406.721,163.490 407.600,163.701 407.600 C 163.783 407.600,164.249 407.060,164.737 406.400 C 165.701 405.096,165.692 404.772,164.723 405.900 M159.375 418.900 L 158.200 420.200 159.500 419.025 C 160.215 418.379,160.800 417.794,160.800 417.725 C 160.800 417.416,160.470 417.688,159.375 418.900 M90.100 421.487 C 90.705 421.578,91.695 421.578,92.300 421.487 C 92.905 421.395,92.410 421.320,91.200 421.320 C 89.990 421.320,89.495 421.395,90.100 421.487 M90.307 423.490 C 91.026 423.579,92.106 423.577,92.707 423.486 C 93.308 423.395,92.720 423.322,91.400 423.324 C 90.080 423.326,89.588 423.401,90.307 423.490 M61.900 428.295 C 63.055 428.376,64.945 428.376,66.100 428.295 C 67.255 428.214,66.310 428.148,64.000 428.148 C 61.690 428.148,60.745 428.214,61.900 428.295 M55.705 428.687 C 56.314 428.779,57.214 428.777,57.705 428.682 C 58.197 428.587,57.700 428.511,56.600 428.514 C 55.500 428.517,55.097 428.595,55.705 428.687 M61.317 430.297 C 62.811 430.374,65.151 430.374,66.517 430.296 C 67.882 430.218,66.660 430.155,63.800 430.155 C 60.940 430.156,59.822 430.220,61.317 430.297 M26.912 433.895 C 27.964 433.977,29.584 433.976,30.512 433.892 C 31.440 433.808,30.580 433.741,28.600 433.742 C 26.620 433.743,25.860 433.812,26.912 433.895 M56.300 455.482 C 56.795 455.578,57.605 455.578,58.100 455.482 C 58.595 455.387,58.190 455.309,57.200 455.309 C 56.210 455.309,55.805 455.387,56.300 455.482 M58.505 457.487 C 59.114 457.579,60.014 457.577,60.505 457.482 C 60.997 457.387,60.500 457.311,59.400 457.314 C 58.300 457.317,57.897 457.395,58.505 457.487 " stroke="none" fill="#a0a0a0" fill-rule="evenodd"></path><path id="path3" d="M373.775 60.900 L 372.600 62.200 373.900 61.025 C 374.615 60.379,375.200 59.794,375.200 59.725 C 375.200 59.416,374.870 59.688,373.775 60.900 M334.531 67.800 C 334.533 69.340,334.605 69.921,334.692 69.091 C 334.779 68.261,334.777 67.001,334.689 66.291 C 334.600 65.581,334.529 66.260,334.531 67.800 M372.000 71.376 C 372.000 72.133,372.138 72.838,372.307 72.943 C 372.476 73.047,372.548 72.428,372.465 71.566 C 372.281 69.632,372.000 69.518,372.000 71.376 M335.714 96.200 C 335.717 97.300,335.795 97.703,335.887 97.095 C 335.979 96.486,335.977 95.586,335.882 95.095 C 335.787 94.603,335.711 95.100,335.714 96.200 M334.120 97.600 C 334.120 98.810,334.195 99.305,334.287 98.700 C 334.378 98.095,334.378 97.105,334.287 96.500 C 334.195 95.895,334.120 96.390,334.120 97.600 M370.446 96.867 C 370.421 97.234,370.296 97.864,370.170 98.267 C 369.952 98.962,369.963 98.963,370.397 98.287 C 370.648 97.896,370.773 97.266,370.673 96.887 C 370.511 96.268,370.488 96.266,370.446 96.867 M366.178 107.235 C 366.031 107.474,366.136 107.879,366.414 108.135 C 366.797 108.489,366.854 108.487,366.650 108.125 C 366.503 107.863,366.702 107.464,367.092 107.237 C 367.736 106.861,367.739 106.823,367.124 106.812 C 366.752 106.805,366.326 106.996,366.178 107.235 M330.514 113.000 C 330.517 114.100,330.595 114.503,330.687 113.895 C 330.779 113.286,330.777 112.386,330.682 111.895 C 330.587 111.403,330.511 111.900,330.514 113.000 M367.375 119.700 L 366.200 121.000 367.500 119.825 C 368.215 119.179,368.800 118.594,368.800 118.525 C 368.800 118.216,368.470 118.488,367.375 119.700 M366.101 127.800 C 366.105 128.680,366.187 128.993,366.283 128.495 C 366.379 127.998,366.375 127.278,366.275 126.895 C 366.175 126.513,366.096 126.920,366.101 127.800 M314.493 140.000 C 314.493 140.770,314.575 141.085,314.676 140.700 C 314.776 140.315,314.776 139.685,314.676 139.300 C 314.575 138.915,314.493 139.230,314.493 140.000 M314.501 147.400 C 314.505 148.280,314.587 148.593,314.683 148.095 C 314.779 147.598,314.775 146.878,314.675 146.495 C 314.575 146.113,314.496 146.520,314.501 147.400 M303.578 168.700 L 302.200 170.200 303.700 168.822 C 305.096 167.538,305.384 167.200,305.078 167.200 C 305.012 167.200,304.337 167.875,303.578 168.700 M350.493 190.800 C 350.493 191.570,350.575 191.885,350.676 191.500 C 350.776 191.115,350.776 190.485,350.676 190.100 C 350.575 189.715,350.493 190.030,350.493 190.800 M345.600 222.200 C 343.961 223.850,342.710 225.200,342.820 225.200 C 342.930 225.200,344.361 223.850,346.000 222.200 C 347.639 220.550,348.890 219.200,348.780 219.200 C 348.670 219.200,347.239 220.550,345.600 222.200 M344.778 225.100 L 343.400 226.600 344.900 225.222 C 346.296 223.938,346.584 223.600,346.278 223.600 C 346.212 223.600,345.537 224.275,344.778 225.100 M341.775 228.100 L 340.600 229.400 341.900 228.225 C 342.615 227.579,343.200 226.994,343.200 226.925 C 343.200 226.616,342.870 226.888,341.775 228.100 M317.200 236.200 C 316.228 237.190,315.523 238.000,315.633 238.000 C 315.743 238.000,316.628 237.190,317.600 236.200 C 318.572 235.210,319.277 234.400,319.167 234.400 C 319.057 234.400,318.172 235.210,317.200 236.200 M263.978 241.900 L 262.600 243.400 264.100 242.022 C 265.496 240.738,265.784 240.400,265.478 240.400 C 265.412 240.400,264.737 241.075,263.978 241.900 M334.412 250.668 C 334.869 251.402,334.863 251.648,334.376 252.268 C 333.848 252.939,333.859 252.954,334.500 252.451 C 335.379 251.762,335.391 251.055,334.536 250.349 C 333.930 249.849,333.919 249.877,334.412 250.668 M325.381 252.900 L 323.800 254.600 325.500 253.019 C 327.081 251.548,327.384 251.200,327.081 251.200 C 327.016 251.200,326.251 251.965,325.381 252.900 M323.309 275.600 C 323.309 276.590,323.387 276.995,323.482 276.500 C 323.578 276.005,323.578 275.195,323.482 274.700 C 323.387 274.205,323.309 274.610,323.309 275.600 M234.581 276.900 L 233.000 278.600 234.700 277.019 C 235.635 276.149,236.400 275.384,236.400 275.319 C 236.400 275.016,236.052 275.319,234.581 276.900 M235.381 278.100 L 233.800 279.800 235.500 278.219 C 237.081 276.748,237.384 276.400,237.081 276.400 C 237.016 276.400,236.251 277.165,235.381 278.100 M252.562 278.062 C 252.376 278.362,252.453 278.414,252.783 278.211 C 253.078 278.028,253.435 278.128,253.639 278.449 C 253.915 278.885,253.989 278.854,253.994 278.300 C 254.001 277.516,253.002 277.349,252.562 278.062 M291.578 298.700 L 290.200 300.200 291.700 298.822 C 293.096 297.538,293.384 297.200,293.078 297.200 C 293.012 297.200,292.337 297.875,291.578 298.700 M292.585 299.700 L 290.600 301.800 292.700 299.815 C 294.651 297.971,294.983 297.600,294.685 297.600 C 294.622 297.600,293.677 298.545,292.585 299.700 M283.992 305.810 C 283.603 306.278,283.593 306.625,283.945 307.310 L 284.404 308.200 284.169 307.281 C 284.040 306.775,284.151 306.100,284.416 305.781 C 284.681 305.461,284.808 305.200,284.698 305.200 C 284.588 305.200,284.270 305.474,283.992 305.810 M189.775 334.100 L 188.600 335.400 189.900 334.225 C 191.112 333.130,191.384 332.800,191.075 332.800 C 191.006 332.800,190.421 333.385,189.775 334.100 M241.900 344.682 C 242.395 344.778,243.205 344.778,243.700 344.682 C 244.195 344.587,243.790 344.509,242.800 344.509 C 241.810 344.509,241.405 344.587,241.900 344.682 M148.778 364.700 L 147.400 366.200 148.900 364.822 C 150.296 363.538,150.584 363.200,150.278 363.200 C 150.212 363.200,149.537 363.875,148.778 364.700 M149.775 365.700 L 148.600 367.000 149.900 365.825 C 150.615 365.179,151.200 364.594,151.200 364.525 C 151.200 364.216,150.870 364.488,149.775 365.700 M181.900 374.682 C 182.395 374.778,183.205 374.778,183.700 374.682 C 184.195 374.587,183.790 374.509,182.800 374.509 C 181.810 374.509,181.405 374.587,181.900 374.682 M140.778 377.100 L 139.400 378.600 140.900 377.222 C 142.296 375.938,142.584 375.600,142.278 375.600 C 142.212 375.600,141.537 376.275,140.778 377.100 M141.978 377.900 L 140.600 379.400 142.100 378.022 C 143.496 376.738,143.784 376.400,143.478 376.400 C 143.412 376.400,142.737 377.075,141.978 377.900 M190.600 378.000 C 191.459 378.880,192.252 379.600,192.362 379.600 C 192.472 379.600,191.859 378.880,191.000 378.000 C 190.141 377.120,189.348 376.400,189.238 376.400 C 189.128 376.400,189.741 377.120,190.600 378.000 M126.981 399.300 L 125.400 401.000 127.100 399.419 C 128.681 397.948,128.984 397.600,128.681 397.600 C 128.616 397.600,127.851 398.365,126.981 399.300 M122.581 402.900 L 121.000 404.600 122.700 403.019 C 124.281 401.548,124.584 401.200,124.281 401.200 C 124.216 401.200,123.451 401.965,122.581 402.900 M101.300 419.476 C 101.685 419.576,102.315 419.576,102.700 419.476 C 103.085 419.375,102.770 419.293,102.000 419.293 C 101.230 419.293,100.915 419.375,101.300 419.476 M82.900 420.676 C 83.285 420.776,83.915 420.776,84.300 420.676 C 84.685 420.575,84.370 420.493,83.600 420.493 C 82.830 420.493,82.515 420.575,82.900 420.676 M90.500 421.876 C 90.885 421.976,91.515 421.976,91.900 421.876 C 92.285 421.775,91.970 421.693,91.200 421.693 C 90.430 421.693,90.115 421.775,90.500 421.876 M59.907 428.690 C 60.626 428.779,61.706 428.777,62.307 428.686 C 62.908 428.595,62.320 428.522,61.000 428.524 C 59.680 428.526,59.188 428.601,59.907 428.690 M66.505 428.687 C 67.114 428.779,68.014 428.777,68.505 428.682 C 68.997 428.587,68.500 428.511,67.400 428.514 C 66.300 428.517,65.897 428.595,66.505 428.687 M56.100 430.276 C 56.485 430.376,57.115 430.376,57.500 430.276 C 57.885 430.175,57.570 430.093,56.800 430.093 C 56.030 430.093,55.715 430.175,56.100 430.276 M39.905 431.883 C 40.402 431.979,41.122 431.975,41.505 431.875 C 41.887 431.775,41.480 431.696,40.600 431.701 C 39.720 431.705,39.407 431.787,39.905 431.883 M147.783 433.228 C 147.637 433.463,147.132 433.812,146.659 434.003 C 146.073 434.239,146.003 434.357,146.438 434.375 C 146.789 434.389,147.402 434.040,147.800 433.600 C 148.198 433.160,148.417 432.800,148.286 432.800 C 148.154 432.800,147.928 432.993,147.783 433.228 M38.900 433.476 C 39.285 433.576,39.915 433.576,40.300 433.476 C 40.685 433.375,40.370 433.293,39.600 433.293 C 38.830 433.293,38.515 433.375,38.900 433.476 M26.700 435.482 C 27.195 435.578,28.005 435.578,28.500 435.482 C 28.995 435.387,28.590 435.309,27.600 435.309 C 26.610 435.309,26.205 435.387,26.700 435.482 M24.800 442.925 C 24.800 442.994,25.385 443.579,26.100 444.225 L 27.400 445.400 26.225 444.100 C 25.130 442.888,24.800 442.616,24.800 442.925 M101.000 450.000 C 100.496 450.217,100.422 450.344,100.800 450.344 C 101.130 450.344,101.760 450.189,102.200 450.000 C 102.704 449.783,102.778 449.656,102.400 449.656 C 102.070 449.656,101.440 449.811,101.000 450.000 M71.500 456.682 C 71.995 456.778,72.805 456.778,73.300 456.682 C 73.795 456.587,73.390 456.509,72.400 456.509 C 71.410 456.509,71.005 456.587,71.500 456.682 M55.900 457.089 C 56.615 457.178,57.785 457.178,58.500 457.089 C 59.215 457.001,58.630 456.928,57.200 456.928 C 55.770 456.928,55.185 457.001,55.900 457.089 M79.905 459.483 C 80.402 459.579,81.122 459.575,81.505 459.475 C 81.887 459.375,81.480 459.296,80.600 459.301 C 79.720 459.305,79.407 459.387,79.905 459.483 " stroke="none" fill="#7c7c7c" fill-rule="evenodd"></path><path id="path4" d="M354.493 163.200 C 354.493 163.970,354.575 164.285,354.676 163.900 C 354.776 163.515,354.776 162.885,354.676 162.500 C 354.575 162.115,354.493 162.430,354.493 163.200 M294.893 187.600 C 294.893 188.370,294.975 188.685,295.076 188.300 C 295.176 187.915,295.176 187.285,295.076 186.900 C 294.975 186.515,294.893 186.830,294.893 187.600 " stroke="none" fill="#848484" fill-rule="evenodd"></path></g></svg>